<svg xmlns="http://www.w3.org/2000/svg" viewBox="0 0 300 300" role="img" aria-label="Logo DBSpeed, néon"><title>Logo DBSpeed, néon</title><defs><filter id="neon" x="-30%" y="-30%" width="160%" height="160%"><feGaussianBlur stdDeviation="3.2" result="b"/><feMerge><feMergeNode in="b"/><feMergeNode in="b"/><feMergeNode in="SourceGraphic"/></feMerge></filter><filter id="halo" x="-50%" y="-50%" width="200%" height="200%"><feGaussianBlur stdDeviation="7"/></filter><clipPath id="disque"><circle cx="150" cy="150" r="117"/></clipPath><linearGradient id="sol" x1="0" y1="0" x2="0" y2="1"><stop offset=".3" stop-color="#3FE6FF" stop-opacity="0"/><stop offset="1" stop-color="#3FE6FF" stop-opacity=".8"/></linearGradient></defs><style>
.tour{transform-origin:150px 150px;animation:tour 40s linear infinite}
@keyframes tour{to{transform:rotate(360deg)}}
.eclat{animation:eclat 4.5s cubic-bezier(.45,0,.2,1) infinite}
@keyframes eclat{0%{transform:translateX(-120px) skewX(-20deg)}55%,100%{transform:translateX(330px) skewX(-20deg)}}
.vitesse path{stroke-dasharray:40;animation:vitesse 2.4s cubic-bezier(.2,.7,.2,1) infinite}
.vitesse path:nth-child(2){animation-delay:.12s}.vitesse path:nth-child(3){animation-delay:.24s}
@keyframes vitesse{0%{stroke-dashoffset:40;opacity:0}15%{opacity:1}35%,80%{stroke-dashoffset:0;opacity:1}100%{stroke-dashoffset:-40;opacity:0}}
@media (prefers-reduced-motion:reduce){*{animation:none!important}.eclat{opacity:0}}

.moto{animation:moto 3.2s linear infinite}
@keyframes moto{to{stroke-dashoffset:-1000}}
.grille{animation:grille 2.4s linear infinite}
@keyframes grille{to{transform:translateY(14px)}}
.lettres,.halo{animation:clignote 6s steps(1) infinite}
@keyframes clignote{0%,100%{opacity:1}71%{opacity:.55}72%{opacity:1}74%{opacity:.7}75%{opacity:1}}
.halo{opacity:.35}
</style><circle cx="150" cy="150" r="146" fill="#02050A"/><g clip-path="url(#disque)"><rect width="300" height="300" fill="#000"/><g stroke="url(#sol)" stroke-width="1.3"><path d="M150 150L-210 300M150 150L-150 300M150 150L-90 300M150 150L-30 300M150 150L30 300M150 150L90 300M150 150L150 300M150 150L210 300M150 150L270 300M150 150L330 300M150 150L390 300M150 150L450 300M150 150L510 300"/><path class="grille" d="M0 152.38H300M0 158.28H300M0 167.18H300M0 178.83H300M0 193.08H300M0 209.81H300M0 228.93H300M0 250.38H300M0 274.09H300M0 300H300M0 328.07H300"/></g></g><g filter="url(#neon)" fill="none" stroke="#3FE6FF"><circle cx="150" cy="150" r="146" stroke-width="2.5"/><circle cx="150" cy="150" r="118" stroke-width="1.4"/></g><circle class="moto" cx="150" cy="150" r="146" fill="none" stroke="#E6FDFF" stroke-width="4" stroke-linecap="round" pathLength="1000" stroke-dasharray="70 930" filter="url(#neon)"/><path class="tour" d="M250 150L261 150M253.43 160.87L260.39 161.6M251.73 171.62L258.57 173.08M248.91 182.14L255.57 184.3M245.01 192.3L251.4 195.15M236.6 200L246.13 205.5M234.14 211.13L239.8 215.24M227.29 219.59L232.49 224.27M219.59 227.29L224.27 232.49M211.13 234.14L215.24 239.8M200 236.6L205.5 246.13M192.3 245.01L195.15 251.4M182.14 248.91L184.3 255.57M171.62 251.73L173.08 258.57M160.87 253.43L161.6 260.39M150 250L150 261M139.13 253.43L138.4 260.39M128.38 251.73L126.92 258.57M117.86 248.91L115.7 255.57M107.7 245.01L104.85 251.4M100 236.6L94.5 246.13M88.87 234.14L84.76 239.8M80.41 227.29L75.73 232.49M72.71 219.59L67.51 224.27M65.86 211.13L60.2 215.24M63.4 200L53.87 205.5M54.99 192.3L48.6 195.15M51.09 182.14L44.43 184.3M48.27 171.62L41.43 173.08M46.57 160.87L39.61 161.6M50 150L39 150M46.57 139.13L39.61 138.4M48.27 128.38L41.43 126.92M51.09 117.86L44.43 115.7M54.99 107.7L48.6 104.85M63.4 100L53.87 94.5M65.86 88.87L60.2 84.76M72.71 80.41L67.51 75.73M80.41 72.71L75.73 67.51M88.87 65.86L84.76 60.2M100 63.4L94.5 53.87M107.7 54.99L104.85 48.6M117.86 51.09L115.7 44.43M128.38 48.27L126.92 41.43M139.13 46.57L138.4 39.61M150 50L150 39M160.87 46.57L161.6 39.61M171.62 48.27L173.08 41.43M182.14 51.09L184.3 44.43M192.3 54.99L195.15 48.6M200 63.4L205.5 53.87M211.13 65.86L215.24 60.2M219.59 72.71L224.27 67.51M227.29 80.41L232.49 75.73M234.14 88.87L239.8 84.76M236.6 100L246.13 94.5M245.01 107.7L251.4 104.85M248.91 117.86L255.57 115.7M251.73 128.38L258.57 126.92M253.43 139.13L260.39 138.4" stroke="#3FE6FF" stroke-opacity=".55" stroke-width="1.1"/><g class="vitesse" fill="none" stroke="#FF9A1F" stroke-width="6" stroke-linecap="round" filter="url(#neon)"><path d="M56 126H88"/><path d="M66 146H88"/><path d="M76 166H88"/></g><path class="halo" d="M92.44 206V86H122.89Q139.76 86 147.3 93.16Q154.84 100.33 155.14 116.75Q155.36 127.17 155.44 136.55Q155.51 145.93 155.44 155.3Q155.36 164.68 155.14 175.1Q154.84 191.6 147.3 198.8Q139.76 206 122.89 206ZM114.94 186.2H122.89Q127.61 186.2 130.09 184.02Q132.56 181.85 132.64 177.8Q132.86 169.78 132.98 161.82Q133.09 153.88 133.09 145.93Q133.09 137.98 132.98 129.99Q132.86 122 132.64 114.05Q132.56 110.08 130.09 107.94Q127.61 105.8 122.89 105.8H114.94Z M164.69 206V86H192.44Q209.24 86 216.96 92.79Q224.69 99.58 224.69 115.25Q224.69 117.35 224.69 119.3Q224.69 121.25 224.54 123.2Q224.01 131.38 220.86 136.21Q217.71 141.05 211.04 143.3V146.9Q217.94 149.15 221.16 154.06Q224.39 158.97 224.69 167.45Q224.84 169.93 224.84 172.03Q224.84 174.12 224.69 176.75Q224.01 192.35 216.62 199.18Q209.24 206 192.44 206ZM187.19 186.2H192.44Q197.16 186.2 199.68 183.69Q202.19 181.18 202.19 176.45Q202.19 174.43 202.19 172.48Q202.19 170.53 202.19 168.5Q202.19 161.07 199.9 157.96Q197.61 154.85 192.44 154.85H187.19ZM187.19 135.05H192.44Q197.16 135.05 199.68 131.79Q202.19 128.53 202.19 122.6Q202.19 120.42 202.19 118.29Q202.19 116.15 202.19 114.05Q202.19 110.08 199.68 107.94Q197.16 105.8 192.44 105.8H187.19Z" fill="#3FE6FF" opacity=".35" filter="url(#halo)"/><path class="lettres" d="M92.44 206V86H122.89Q139.76 86 147.3 93.16Q154.84 100.33 155.14 116.75Q155.36 127.17 155.44 136.55Q155.51 145.93 155.44 155.3Q155.36 164.68 155.14 175.1Q154.84 191.6 147.3 198.8Q139.76 206 122.89 206ZM114.94 186.2H122.89Q127.61 186.2 130.09 184.02Q132.56 181.85 132.64 177.8Q132.86 169.78 132.98 161.82Q133.09 153.88 133.09 145.93Q133.09 137.98 132.98 129.99Q132.86 122 132.64 114.05Q132.56 110.08 130.09 107.94Q127.61 105.8 122.89 105.8H114.94Z M164.69 206V86H192.44Q209.24 86 216.96 92.79Q224.69 99.58 224.69 115.25Q224.69 117.35 224.69 119.3Q224.69 121.25 224.54 123.2Q224.01 131.38 220.86 136.21Q217.71 141.05 211.04 143.3V146.9Q217.94 149.15 221.16 154.06Q224.39 158.97 224.69 167.45Q224.84 169.93 224.84 172.03Q224.84 174.12 224.69 176.75Q224.01 192.35 216.62 199.18Q209.24 206 192.44 206ZM187.19 186.2H192.44Q197.16 186.2 199.68 183.69Q202.19 181.18 202.19 176.45Q202.19 174.43 202.19 172.48Q202.19 170.53 202.19 168.5Q202.19 161.07 199.9 157.96Q197.61 154.85 192.44 154.85H187.19ZM187.19 135.05H192.44Q197.16 135.05 199.68 131.79Q202.19 128.53 202.19 122.6Q202.19 120.42 202.19 118.29Q202.19 116.15 202.19 114.05Q202.19 110.08 199.68 107.94Q197.16 105.8 192.44 105.8H187.19Z" fill="#00121A" stroke="#3FE6FF" stroke-width="3" stroke-linejoin="round" filter="url(#neon)"/><path d="M92.44 206V86H122.89Q139.76 86 147.3 93.16Q154.84 100.33 155.14 116.75Q155.36 127.17 155.44 136.55Q155.51 145.93 155.44 155.3Q155.36 164.68 155.14 175.1Q154.84 191.6 147.3 198.8Q139.76 206 122.89 206ZM114.94 186.2H122.89Q127.61 186.2 130.09 184.02Q132.56 181.85 132.64 177.8Q132.86 169.78 132.98 161.82Q133.09 153.88 133.09 145.93Q133.09 137.98 132.98 129.99Q132.86 122 132.64 114.05Q132.56 110.08 130.09 107.94Q127.61 105.8 122.89 105.8H114.94Z M164.69 206V86H192.44Q209.24 86 216.96 92.79Q224.69 99.58 224.69 115.25Q224.69 117.35 224.69 119.3Q224.69 121.25 224.54 123.2Q224.01 131.38 220.86 136.21Q217.71 141.05 211.04 143.3V146.9Q217.94 149.15 221.16 154.06Q224.39 158.97 224.69 167.45Q224.84 169.93 224.84 172.03Q224.84 174.12 224.69 176.75Q224.01 192.35 216.62 199.18Q209.24 206 192.44 206ZM187.19 186.2H192.44Q197.16 186.2 199.68 183.69Q202.19 181.18 202.19 176.45Q202.19 174.43 202.19 172.48Q202.19 170.53 202.19 168.5Q202.19 161.07 199.9 157.96Q197.61 154.85 192.44 154.85H187.19ZM187.19 135.05H192.44Q197.16 135.05 199.68 131.79Q202.19 128.53 202.19 122.6Q202.19 120.42 202.19 118.29Q202.19 116.15 202.19 114.05Q202.19 110.08 199.68 107.94Q197.16 105.8 192.44 105.8H187.19Z" fill="none" stroke="#E6FDFF" stroke-width=".9" stroke-linejoin="round"/></svg>
